<?xml version="1.0" encoding="UTF-8"?>
<svg width="251px" height="47px" viewBox="0 0 251 47" version="1.1" xmlns="http://www.w3.org/2000/svg" xmlns:xlink="http://www.w3.org/1999/xlink">
    <!-- Generator: Sketch 53.2 (72643) - https://sketchapp.com -->
    <title>Logo</title>
    <desc>Created with Sketch.</desc>
    <g id="Artboard" stroke="none" stroke-width="1" fill="none" fill-rule="evenodd">
        <g id="Desktop-HD" transform="translate(-91.000000, -43.000000)">
            <g id="Logo" transform="translate(91.000000, 43.000000)">
                <path d="M17.5004444,43.9144698 C9.54925214,43.9144698 3.08057594,37.430759 3.08057594,29.4612906 C3.08057594,21.0366531 7.77876533,13.314811 12.815587,7.99619066 C18.3030295,11.7123662 25.7609386,20.6215673 25.7609386,29.4612906 C25.7609386,34.027234 22.0546484,37.741628 17.5004444,37.741628 C12.9453516,37.741628 9.23906143,34.027234 9.23906143,29.4612906 C9.23906143,25.069042 11.0788745,20.657197 13.6048401,16.8759973 C16.7867391,20.377504 19.6015643,25.144755 19.6015643,29.4612906 C19.6015643,30.6228182 18.658549,31.5687861 17.5004444,31.5687861 C16.341451,31.5687861 15.3984357,30.6228182 15.3984357,29.4612906 C15.3984357,28.3852743 15.5717514,27.2763006 15.8837197,26.1699991 C15.4384317,24.9247418 14.7816095,23.6545437 14.0056883,22.4431347 C12.9693491,24.7207619 12.3187486,27.1097318 12.3187486,29.4612906 C12.3187486,32.3250261 14.6429569,34.6552071 17.5004444,34.6552071 C20.3570431,34.6552071 22.6812514,32.3250261 22.6812514,29.4612906 C22.6812514,22.9223538 17.6710937,16.0725481 13.2306559,12.2138539 C9.40615557,16.8777788 6.15937429,23.0069743 6.15937429,29.4612906 C6.15937429,35.7285511 11.2468575,40.8280489 17.5004444,40.8280489 C23.7531425,40.8280489 28.8397369,35.7285511 28.8397369,29.4612906 C28.8397369,18.7127073 19.8335407,8.86466408 14.1558953,5.18411826 C13.5692882,4.80377144 12.9711267,4.43589501 12.3631885,4.08227044 C6.18159425,9.89792476 0,19.127793 0,29.4621814 C0,39.1481095 7.83475964,47 17.5004444,47 C27.1652404,47 35,39.1481095 35,29.4621814 C35,16.1865631 24.7974809,4.73162134 17.5004444,0 C16.637421,0.559385957 15.7361792,1.2140813 14.8153838,1.9525064 C15.1557937,2.16094002 15.494426,2.37560883 15.8286142,2.59205913 C22.2964016,6.78656306 31.9194241,17.4033166 31.9194241,29.4612906 C31.9194241,37.430759 25.4507479,43.9144698 17.5004444,43.9144698" id="Fill-51" fill="#184C78"></path>
                <path d="M251,14.6271685 L251,11.5680682 L181.565488,11.5689503 L181.565488,27.9547192 C181.565488,33.5542488 176.988051,38.1111438 171.360214,38.1111438 C165.733264,38.1111438 161.15494,33.5542488 161.15494,27.9547192 L161.15494,11.5689503 L138.791623,11.5680682 L138.791623,37.2625698 L119.948253,11.5680682 L115.904437,11.5680682 L115.904437,37.4169362 L102.690677,37.4169362 L91.3516801,11.5680682 L87.4053689,11.5680682 L75.9644348,37.594237 L61.8146223,37.594237 C55.248074,37.594237 49.9056622,32.2769774 49.9056622,25.7424287 C49.9056622,19.2069979 55.248074,13.8897383 61.8146223,13.8897383 C64.8434959,13.8897383 67.7287706,15.0223464 69.9403713,17.0776242 L71.9223911,14.9650103 C69.1718512,12.4087033 65.5818781,11 61.8146223,11 C53.6463255,11 47,17.613055 47,25.7424287 C47,33.8709203 53.6463255,40.4839753 61.8146223,40.4839753 L78.2336524,40.4760365 L89.3785245,15.0717436 L100.523397,40.4760365 L118.978518,40.4760365 L118.978518,15.0320494 L137.6384,40.4760365 L141.865704,40.4760365 L141.865704,14.6271685 L158.250164,14.6271685 L158.250164,27.9547192 C158.250164,35.1490738 164.131515,41 171.360214,41 C178.589799,41 184.470264,35.1490738 184.470264,27.9547192 L184.470264,14.6271685 L205.56335,14.6271685 L205.56335,40.4760365 L208.638317,40.4760365 L208.638317,14.6271685 L229.729631,14.6271685 L229.729631,40.4760365 L251,40.4760365 L251,37.4169362 L232.803712,37.4169362 L232.803712,27.5516025 L243.777506,27.5516025 L243.777506,24.4925022 L232.803712,24.4925022 L232.803712,14.6271685 L251,14.6271685" id="Fill-52" fill="#636463"></path>
            </g>
        </g>
    </g>
</svg>